<?xml version="1.0" encoding="UTF-8" standalone="no"?>
<!DOCTYPE svg PUBLIC "-//W3C//DTD SVG 1.0//EN" "http://www.w3.org/TR/2001/PR-SVG-20010719/DTD/svg10.dtd">
<svg width="72cm" height="65cm" viewBox="-222 -193 1430 1299" xmlns="http://www.w3.org/2000/svg" xmlns:xlink="http://www.w3.org/1999/xlink">
  <g>
    <rect style="fill: #ffffff" x="95.3376" y="-74.4682" width="256.4" height="44"/>
    <rect style="fill: none; fill-opacity:0; stroke-width: 2; stroke: #000000" x="95.3376" y="-74.4682" width="256.4" height="44"/>
    <text font-size="12.8" style="fill: #000000;text-anchor:middle;font-family:monospace;font-style:normal;font-weight:normal" x="223.538" y="-58.4682">&lt;&lt;controller&gt;&gt;</text>
    <text font-size="16" style="fill: #000000;text-anchor:middle;font-family:sans-serif;font-style:normal;font-weight:700" x="223.538" y="-39.4682">Conversation</text>
    <rect style="fill: #ffffff" x="95.3376" y="-30.4682" width="256.4" height="20"/>
    <rect style="fill: none; fill-opacity:0; stroke-width: 2; stroke: #000000" x="95.3376" y="-30.4682" width="256.4" height="20"/>
    <text font-size="12.8" style="fill: #000000;text-anchor:start;font-family:monospace;font-style:normal;font-weight:normal" x="98.3376" y="-16.4682">-history: LinkedList&lt;Statement&gt;</text>
    <rect style="fill: #ffffff" x="95.3376" y="-10.4682" width="256.4" height="100"/>
    <rect style="fill: none; fill-opacity:0; stroke-width: 2; stroke: #000000" x="95.3376" y="-10.4682" width="256.4" height="100"/>
    <text font-size="12.8" style="fill: #000000;text-anchor:start;font-family:monospace;font-style:normal;font-weight:normal" x="98.3376" y="3.5318">+addOutput(message:String): void</text>
    <text font-size="12.8" style="fill: #000000;text-anchor:start;font-family:monospace;font-style:normal;font-weight:normal" x="98.3376" y="19.5318">+addInput(message:String): void</text>
    <text font-size="12.8" style="fill: #000000;text-anchor:start;font-family:monospace;font-style:normal;font-weight:normal" x="98.3376" y="35.5318">+begin(): Assertion</text>
    <text font-size="12.8" style="fill: #000000;text-anchor:start;font-family:monospace;font-style:normal;font-weight:normal" x="98.3376" y="51.5318">+next(): Assertion</text>
    <text font-size="12.8" style="fill: #000000;text-anchor:start;font-family:monospace;font-style:normal;font-weight:normal" x="98.3376" y="67.5318">+countStatements(): int</text>
    <text font-size="12.8" style="fill: #000000;text-anchor:start;font-family:monospace;font-style:normal;font-weight:normal" x="98.3376" y="83.5318">+toString(): String</text>
  </g>
  <g>
    <rect style="fill: #ffffff" x="720.458" y="-38.3246" width="233.3" height="44"/>
    <rect style="fill: none; fill-opacity:0; stroke-width: 2; stroke: #000000" x="720.458" y="-38.3246" width="233.3" height="44"/>
    <text font-size="12.8" style="fill: #000000;text-anchor:middle;font-family:monospace;font-style:normal;font-weight:normal" x="837.108" y="-22.3246">&lt;&lt;model&gt;&gt;</text>
    <text font-size="16" style="fill: #000000;text-anchor:middle;font-family:sans-serif;font-style:italic;font-weight:700" x="837.108" y="-3.3246">Statement</text>
    <rect style="fill: #ffffff" x="720.458" y="5.6754" width="233.3" height="20"/>
    <rect style="fill: none; fill-opacity:0; stroke-width: 2; stroke: #000000" x="720.458" y="5.6754" width="233.3" height="20"/>
    <text font-size="12.8" style="fill: #000000;text-anchor:start;font-family:monospace;font-style:normal;font-weight:normal" x="723.458" y="19.6754">-message: String</text>
    <rect style="fill: #ffffff" x="720.458" y="25.6754" width="233.3" height="52"/>
    <rect style="fill: none; fill-opacity:0; stroke-width: 2; stroke: #000000" x="720.458" y="25.6754" width="233.3" height="52"/>
    <text font-size="12.8" style="fill: #000000;text-anchor:start;font-family:monospace;font-style:normal;font-weight:normal" x="723.458" y="39.6754">+toString(): String</text>
    <text font-size="12.8" style="fill: #000000;text-anchor:start;font-family:monospace;font-style:italic;font-weight:700" x="723.458" y="55.6754">+receive(actual:String): void</text>
    <text font-size="12.8" style="fill: #000000;text-anchor:start;font-family:monospace;font-style:italic;font-weight:700" x="723.458" y="71.6754">+send(record:Recording): void</text>
  </g>
  <g>
    <polyline style="fill: none; fill-opacity:0; stroke-width: 2; stroke: #000000" points="376.91,63.5318 508.998,63.5318 508.998,19.6754 719.464,19.6754 "/>
    <polygon style="fill: #000000" points="351.738,63.5318 365.738,58.7318 379.738,63.5318 365.738,68.3318 "/>
    <polygon style="fill: none; fill-opacity:0; stroke-width: 2; stroke: #000000" points="351.738,63.5318 365.738,58.7318 379.738,63.5318 365.738,68.3318 "/>
    <text font-size="12.7998" style="fill: #000000;text-anchor:start;font-family:monospace;font-style:normal;font-weight:normal" x="510.998" y="38.6036">history</text>
    <text font-size="12.7998" style="fill: #000000;text-anchor:start;font-family:monospace;font-style:normal;font-weight:normal" x="383.738" y="60.5318"/>
    <text font-size="12.7998" style="fill: #000000;text-anchor:end;font-family:monospace;font-style:normal;font-weight:normal" x="715.464" y="16.6754">*</text>
  </g>
  <g>
    <line style="fill: none; fill-opacity:0; stroke-width: 2; stroke: #000000" x1="222.478" y1="449.02" x2="221.204" y2="656.166"/>
    <ellipse style="fill: #ffffff" cx="221.247" cy="649.166" rx="7" ry="7"/>
    <ellipse style="fill: none; fill-opacity:0; stroke-width: 2; stroke: #000000" cx="221.247" cy="649.166" rx="7" ry="7"/>
    <text font-size="12.7998" style="fill: #000000;text-anchor:start;font-family:monospace;font-style:normal;font-weight:normal" x="236.136" y="555.54"/>
  </g>
  <g>
    <line style="fill: none; fill-opacity:0; stroke-width: 2; stroke: #000000" x1="837.108" y1="19.6754" x2="837.108" y2="19.6754"/>
    <ellipse style="fill: #ffffff" cx="-nan" cy="-nan" rx="7" ry="7"/>
    <ellipse style="fill: none; fill-opacity:0; stroke-width: 2; stroke: #000000" cx="-nan" cy="-nan" rx="7" ry="7"/>
    <text font-size="12.7998" style="fill: #000000;text-anchor:start;font-family:monospace;font-style:normal;font-weight:normal" x="831.108" y="19.6754"/>
  </g>
  <g>
    <rect style="fill: #ffffff" x="720.4" y="218.756" width="233.3" height="28"/>
    <rect style="fill: none; fill-opacity:0; stroke-width: 2; stroke: #000000" x="720.4" y="218.756" width="233.3" height="28"/>
    <text font-size="16" style="fill: #000000;text-anchor:middle;font-family:sans-serif;font-style:normal;font-weight:700" x="837.05" y="237.756">Output</text>
    <rect style="fill: #ffffff" x="720.4" y="246.756" width="233.3" height="8"/>
    <rect style="fill: none; fill-opacity:0; stroke-width: 2; stroke: #000000" x="720.4" y="246.756" width="233.3" height="8"/>
    <rect style="fill: #ffffff" x="720.4" y="254.756" width="233.3" height="36"/>
    <rect style="fill: none; fill-opacity:0; stroke-width: 2; stroke: #000000" x="720.4" y="254.756" width="233.3" height="36"/>
    <text font-size="12.8" style="fill: #000000;text-anchor:start;font-family:monospace;font-style:normal;font-weight:normal" x="723.4" y="268.756">+receive(actual:String): void</text>
    <text font-size="12.8" style="fill: #000000;text-anchor:start;font-family:monospace;font-style:normal;font-weight:normal" x="723.4" y="284.756">+send(record:Recording): void</text>
  </g>
  <g>
    <rect style="fill: #ffffff" x="56.3376" y="268.014" width="333.4" height="44"/>
    <rect style="fill: none; fill-opacity:0; stroke-width: 2; stroke: #000000" x="56.3376" y="268.014" width="333.4" height="44"/>
    <text font-size="12.8" style="fill: #000000;text-anchor:middle;font-family:monospace;font-style:normal;font-weight:normal" x="223.038" y="284.014">&lt;&lt;view&gt;&gt;</text>
    <text font-size="16" style="fill: #000000;text-anchor:middle;font-family:sans-serif;font-style:normal;font-weight:700" x="223.038" y="303.014">Supervisor</text>
    <rect style="fill: #ffffff" x="56.3376" y="312.014" width="333.4" height="52"/>
    <rect style="fill: none; fill-opacity:0; stroke-width: 2; stroke: #000000" x="56.3376" y="312.014" width="333.4" height="52"/>
    <text font-size="12.8" style="fill: #000000;text-anchor:start;font-family:monospace;font-style:normal;font-weight:normal" x="59.3376" y="326.014">-call: Call = null</text>
    <text font-size="12.8" style="fill: #000000;text-anchor:start;font-family:monospace;font-style:normal;font-weight:normal" x="59.3376" y="342.014">-conversation: Conversation = null</text>
    <text font-size="12.8" style="fill: #000000;text-anchor:start;font-family:monospace;font-style:normal;font-weight:normal" x="59.3376" y="358.014">-Assertion: Statement = null</text>
    <rect style="fill: #ffffff" x="56.3376" y="364.014" width="333.4" height="84"/>
    <rect style="fill: none; fill-opacity:0; stroke-width: 2; stroke: #000000" x="56.3376" y="364.014" width="333.4" height="84"/>
    <text font-size="12.8" style="fill: #000000;text-anchor:start;font-family:monospace;font-style:normal;font-weight:normal" x="59.3376" y="378.014">+init(call:Call): Conversation</text>
    <text font-size="12.8" style="fill: #000000;text-anchor:start;font-family:monospace;font-style:normal;font-weight:normal" x="59.3376" y="394.014">+process(): void</text>
    <text font-size="12.8" style="fill: #000000;text-anchor:start;font-family:monospace;font-style:normal;font-weight:normal" x="59.3376" y="410.014">+assertOutput(text:String): void</text>
    <text font-size="12.8" style="fill: #000000;text-anchor:start;font-family:monospace;font-style:normal;font-weight:normal" x="59.3376" y="426.014">+assertInput(): void</text>
    <text font-size="12.8" style="fill: #000000;text-anchor:start;font-family:monospace;font-style:normal;font-weight:normal" x="59.3376" y="442.014">+assertStatements(expectedCount:int): void</text>
  </g>
  <g>
    <polyline style="fill: none; fill-opacity:0; stroke-width: 2; stroke-dasharray: 8; stroke: #000000" points="837.108,96.8351 837.108,210.316 837.05,210.316 837.05,217.759 "/>
    <polygon style="fill: #ffffff" points="845.108,96.8351 837.108,80.8351 829.108,96.8351 "/>
    <polygon style="fill: none; fill-opacity:0; stroke-width: 2; stroke: #000000" points="845.108,96.8351 837.108,80.8351 829.108,96.8351 "/>
  </g>
  <g>
    <polyline style="fill: none; fill-opacity:0; stroke-width: 2; stroke-dasharray: 8; stroke: #000000" points="702.222,51.6754 673,51.6754 673,344.756 720.858,344.756 "/>
    <polygon style="fill: #ffffff" points="702.222,59.6754 718.222,51.6754 702.222,43.6754 "/>
    <polygon style="fill: none; fill-opacity:0; stroke-width: 2; stroke: #000000" points="702.222,59.6754 718.222,51.6754 702.222,43.6754 "/>
  </g>
  <g>
    <polyline style="fill: none; fill-opacity:0; stroke-width: 2; stroke: #000000" points="223.038,241.85 223.038,180.048 223.538,180.048 223.538,90.5257 "/>
    <polygon style="fill: #000000" points="223.038,267.021 218.238,253.021 223.038,239.021 227.838,253.022 "/>
    <polygon style="fill: none; fill-opacity:0; stroke-width: 2; stroke: #000000" points="223.038,267.021 218.238,253.021 223.038,239.021 227.838,253.022 "/>
    <text font-size="12.7998" style="fill: #000000;text-anchor:middle;font-family:monospace;font-style:normal;font-weight:normal" x="223.288" y="177.048">              conversation</text>
    <text font-size="12.7998" style="fill: #000000;text-anchor:start;font-family:monospace;font-style:normal;font-weight:normal" x="234.038" y="263.021">1</text>
    <text font-size="12.7998" style="fill: #000000;text-anchor:start;font-family:monospace;font-style:normal;font-weight:normal" x="227.538" y="102.526"/>
  </g>
  <g>
    <rect style="fill: #ffffff" x="58.9644" y="762.218" width="325.7" height="44"/>
    <rect style="fill: none; fill-opacity:0; stroke-width: 2; stroke: #000000" x="58.9644" y="762.218" width="325.7" height="44"/>
    <text font-size="12.8" style="fill: #000000;text-anchor:middle;font-family:monospace;font-style:normal;font-weight:normal" x="221.814" y="778.218">&lt;&lt;model&gt;&gt;</text>
    <text font-size="16" style="fill: #000000;text-anchor:middle;font-family:sans-serif;font-style:normal;font-weight:700" x="221.814" y="797.218">TextServer</text>
    <rect style="fill: #ffffff" x="58.9644" y="806.218" width="325.7" height="8"/>
    <rect style="fill: none; fill-opacity:0; stroke-width: 2; stroke: #000000" x="58.9644" y="806.218" width="325.7" height="8"/>
    <rect style="fill: #ffffff" x="58.9644" y="814.218" width="325.7" height="36"/>
    <rect style="fill: none; fill-opacity:0; stroke-width: 2; stroke: #000000" x="58.9644" y="814.218" width="325.7" height="36"/>
    <text font-size="12.8" style="fill: #000000;text-anchor:start;font-family:monospace;font-style:normal;font-weight:normal" x="61.9644" y="828.218">+addListener(listener:TextListener): void</text>
    <text font-size="12.8" style="fill: #000000;text-anchor:start;font-family:monospace;font-style:normal;font-weight:normal" x="61.9644" y="844.218">+sendInput(input:String)</text>
  </g>
  <g>
    <polyline style="fill: none; fill-opacity:0; stroke-width: 2; stroke: #000000" points="794.064,840.25 496.046,840.25 496.046,840.218 384.664,840.218 "/>
    <polygon style="fill: #000000" points="819.236,840.25 805.236,845.05 791.236,840.25 805.236,835.45 "/>
    <polygon style="fill: none; fill-opacity:0; stroke-width: 2; stroke: #000000" points="819.236,840.25 805.236,845.05 791.236,840.25 805.236,835.45 "/>
    <text font-size="12.7998" style="fill: #000000;text-anchor:start;font-family:monospace;font-style:normal;font-weight:normal" x="498.046" y="837.234">         server</text>
    <text font-size="12.7998" style="fill: #000000;text-anchor:end;font-family:monospace;font-style:normal;font-weight:normal" x="787.236" y="837.25">1</text>
    <text font-size="12.7998" style="fill: #000000;text-anchor:start;font-family:monospace;font-style:normal;font-weight:normal" x="388.664" y="837.218"/>
  </g>
  <g>
    <polyline style="fill: none; fill-opacity:0; stroke-width: 2; stroke: #000000" points="221.814,736.041 221.814,725.676 221.05,725.676 221.05,704.14 "/>
    <polygon style="fill: #ffffff" points="221.814,761.213 217.014,747.213 221.814,733.213 226.614,747.213 "/>
    <polygon style="fill: none; fill-opacity:0; stroke-width: 2; stroke: #000000" points="221.814,761.213 217.014,747.213 221.814,733.213 226.614,747.213 "/>
    <text font-size="12.7998" style="fill: #000000;text-anchor:middle;font-family:monospace;font-style:normal;font-weight:normal" x="221.432" y="722.676"/>
    <text font-size="12.7998" style="fill: #000000;text-anchor:start;font-family:monospace;font-style:normal;font-weight:normal" x="232.814" y="757.213"/>
    <text font-size="12.7998" style="fill: #000000;text-anchor:start;font-family:monospace;font-style:normal;font-weight:normal" x="225.05" y="716.14"/>
  </g>
  <g>
    <rect style="fill: #ffffff" x="720.858" y="330.756" width="233.3" height="28"/>
    <rect style="fill: none; fill-opacity:0; stroke-width: 2; stroke: #000000" x="720.858" y="330.756" width="233.3" height="28"/>
    <text font-size="16" style="fill: #000000;text-anchor:middle;font-family:sans-serif;font-style:normal;font-weight:700" x="837.508" y="349.756">Input</text>
    <rect style="fill: #ffffff" x="720.858" y="358.756" width="233.3" height="8"/>
    <rect style="fill: none; fill-opacity:0; stroke-width: 2; stroke: #000000" x="720.858" y="358.756" width="233.3" height="8"/>
    <rect style="fill: #ffffff" x="720.858" y="366.756" width="233.3" height="36"/>
    <rect style="fill: none; fill-opacity:0; stroke-width: 2; stroke: #000000" x="720.858" y="366.756" width="233.3" height="36"/>
    <text font-size="12.8" style="fill: #000000;text-anchor:start;font-family:monospace;font-style:normal;font-weight:normal" x="723.858" y="380.756">+receive(actual:String): void</text>
    <text font-size="12.8" style="fill: #000000;text-anchor:start;font-family:monospace;font-style:normal;font-weight:normal" x="723.858" y="396.756">+send(record:Recording): void</text>
  </g>
  <g>
    <rect style="fill: #ffffff" x="1021.29" y="240.556" width="127.5" height="28"/>
    <rect style="fill: none; fill-opacity:0; stroke-width: 2; stroke: #000000" x="1021.29" y="240.556" width="127.5" height="28"/>
    <rect style="fill: #ffffff" x="1021.29" y="222.556" width="30" height="18"/>
    <rect style="fill: none; fill-opacity:0; stroke-width: 2; stroke: #000000" x="1021.29" y="222.556" width="30" height="18"/>
    <text font-size="12.8" style="fill: #000000;text-anchor:start;font-family:monospace;font-style:normal;font-weight:normal" x="1027.29" y="258.456">
      <tspan x="1027.29" y="258.456">voicexmlunit.io</tspan>
    </text>
  </g>
  <g>
    <polyline style="fill: none; fill-opacity:0; stroke-width: 2; stroke-dasharray: 8; stroke: #000000" points="954.662,254.756 992,254.756 992,254.556 1013.59,254.556 "/>
    <polyline style="fill: none; fill-opacity:0; stroke-width: 2; stroke: #000000" points="1000.94,259.556 1016.94,254.556 1000.94,249.556 "/>
  </g>
  <g>
    <line style="fill: none; fill-opacity:0; stroke-width: 2; stroke: #000000" x1="186.1" y1="449.012" x2="58.9644" y2="762.218"/>
    <polyline style="fill: none; fill-opacity:0; stroke-width: 2; stroke: #000000" points="184.715,465.717 186.1,449.012 186.1,449.012 "/>
    <text font-size="12.7998" style="fill: #000000;text-anchor:middle;font-family:sans-serif;font-style:normal;font-weight:normal" x="65.096" y="495.758">outputText, expectInput, ...</text>
  </g>
  <g>
    <rect style="fill: #ffffff" x="160.338" y="659.134" width="121.425" height="28"/>
    <rect style="fill: none; fill-opacity:0; stroke-width: 2; stroke: #000000" x="160.338" y="659.134" width="121.425" height="28"/>
    <text font-size="16" style="fill: #000000;text-anchor:middle;font-family:sans-serif;font-style:normal;font-weight:700" x="221.05" y="678.134">TextListener</text>
    <rect style="fill: #ffffff" x="160.338" y="687.134" width="121.425" height="8"/>
    <rect style="fill: none; fill-opacity:0; stroke-width: 2; stroke: #000000" x="160.338" y="687.134" width="121.425" height="8"/>
    <rect style="fill: #ffffff" x="160.338" y="695.134" width="121.425" height="8"/>
    <rect style="fill: none; fill-opacity:0; stroke-width: 2; stroke: #000000" x="160.338" y="695.134" width="121.425" height="8"/>
    <rect style="fill: #ffffff" x="235.763" y="657.134" width="54" height="8"/>
    <rect style="fill: none; fill-opacity:0; stroke-width: 2; stroke-dasharray: 6; stroke: #000000" x="235.763" y="657.134" width="54" height="8"/>
  </g>
  <g>
    <polyline style="fill: none; fill-opacity:0; stroke-width: 2; stroke-dasharray: 8; stroke: #000000" points="955.156,366.756 974,366.756 974,254.556 1013.58,254.556 "/>
    <polyline style="fill: none; fill-opacity:0; stroke-width: 2; stroke: #000000" points="1000.94,259.556 1016.94,254.556 1000.94,249.556 "/>
  </g>
  <g>
    <polyline style="fill: none; fill-opacity:0; stroke-width: 2; stroke-dasharray: 8; stroke: #000000" points="954.755,19.6754 975.48,19.6754 975.48,254.556 1013.59,254.556 "/>
    <polyline style="fill: none; fill-opacity:0; stroke-width: 2; stroke: #000000" points="1000.94,259.556 1016.94,254.556 1000.94,249.556 "/>
  </g>
  <g>
    <rect style="fill: #ffffff" x="-145.355" y="94.8734" width="104.4" height="28"/>
    <rect style="fill: none; fill-opacity:0; stroke-width: 2; stroke: #000000" x="-145.355" y="94.8734" width="104.4" height="28"/>
    <rect style="fill: #ffffff" x="-145.355" y="76.8734" width="30" height="18"/>
    <rect style="fill: none; fill-opacity:0; stroke-width: 2; stroke: #000000" x="-145.355" y="76.8734" width="30" height="18"/>
    <text font-size="12.8" style="fill: #000000;text-anchor:start;font-family:monospace;font-style:normal;font-weight:normal" x="-139.355" y="112.773">
      <tspan x="-139.355" y="112.773">voicexmlunit</tspan>
    </text>
  </g>
  <g>
    <polyline style="fill: none; fill-opacity:0; stroke-width: 2; stroke-dasharray: 8; stroke: #000000" points="94.3789,7.53181 -220.842,7.53183 -220.842,108.873 -153.058,108.873 "/>
    <polyline style="fill: none; fill-opacity:0; stroke-width: 2; stroke: #000000" points="-165.706,113.873 -149.706,108.873 -165.706,103.873 "/>
  </g>
  <g>
    <polyline style="fill: none; fill-opacity:0; stroke-width: 2; stroke-dasharray: 8; stroke: #000000" points="55.3496,358.014 -220.02,358.014 -220.02,108.873 -157.061,108.873 "/>
    <polyline style="fill: none; fill-opacity:0; stroke-width: 2; stroke: #000000" points="-169.708,113.873 -153.708,108.873 -169.708,103.873 "/>
  </g>
  <g>
    <rect style="fill: #ffffff" x="-165.02" y="408.59" width="73.125" height="28"/>
    <rect style="fill: none; fill-opacity:0; stroke-width: 4; stroke: #000000" x="-165.02" y="408.59" width="73.125" height="28"/>
    <text font-size="16" style="fill: #000000;text-anchor:middle;font-family:sans-serif;font-style:normal;font-weight:700" x="-128.457" y="427.59">MyTest</text>
    <rect style="fill: #ffffff" x="-165.02" y="436.59" width="73.125" height="8"/>
    <rect style="fill: none; fill-opacity:0; stroke-width: 4; stroke: #000000" x="-165.02" y="436.59" width="73.125" height="8"/>
    <rect style="fill: #ffffff" x="-165.02" y="444.59" width="73.125" height="8"/>
    <rect style="fill: none; fill-opacity:0; stroke-width: 4; stroke: #000000" x="-165.02" y="444.59" width="73.125" height="8"/>
  </g>
  <g>
    <polyline style="fill: none; fill-opacity:0; stroke-width: 2; stroke: #000000" points="-66.7234,422.59 -10.7787,422.59 -10.7787,422.014 56.3376,422.014 "/>
    <polygon style="fill: #000000" points="-91.895,422.59 -77.895,417.79 -63.895,422.59 -77.895,427.39 "/>
    <polygon style="fill: none; fill-opacity:0; stroke-width: 2; stroke: #000000" points="-91.895,422.59 -77.895,417.79 -63.895,422.59 -77.895,427.39 "/>
    <text font-size="12.7998" style="fill: #000000;text-anchor:start;font-family:monospace;font-style:normal;font-weight:normal" x="-8.7787" y="419.302"/>
    <text font-size="12.7998" style="fill: #000000;text-anchor:start;font-family:monospace;font-style:normal;font-weight:normal" x="-59.895" y="419.59"> 1</text>
    <text font-size="12.7998" style="fill: #000000;text-anchor:start;font-family:monospace;font-style:normal;font-weight:normal" x="-59.895" y="435.59"/>
    <text font-size="12.7998" style="fill: #000000;text-anchor:end;font-family:monospace;font-style:normal;font-weight:normal" x="52.3376" y="419.014"/>
  </g>
  <g>
    <rect style="fill: #ffffff" x="720.586" y="633.278" width="80" height="80"/>
    <rect style="fill: none; fill-opacity:0; stroke-width: 2; stroke: #000000" x="720.586" y="633.278" width="80" height="80"/>
    <rect style="fill: #ffffff" x="720.586" y="613.278" width="40" height="20"/>
    <rect style="fill: none; fill-opacity:0; stroke-width: 2; stroke: #000000" x="720.586" y="613.278" width="40" height="20"/>
    <text font-size="12.7998" style="fill: #000000;text-anchor:start;font-family:monospace;font-style:normal;font-weight:normal" x="722.586" y="628.278">text</text>
  </g>
  <g>
    <polyline style="fill: none; fill-opacity:0; stroke-width: 2; stroke-dasharray: 8; stroke: #000000" points="281.762,673.134 466.314,673.134 466.314,673.278 712.885,673.278 "/>
    <polyline style="fill: none; fill-opacity:0; stroke-width: 2; stroke: #000000" points="700.238,678.278 716.238,673.278 700.238,668.278 "/>
  </g>
  <g>
    <polyline style="fill: none; fill-opacity:0; stroke-width: 2; stroke-dasharray: 8; stroke: #000000" points="384.664,784.218 631,784.218 631,673.278 713.132,673.278 "/>
    <polyline style="fill: none; fill-opacity:0; stroke-width: 2; stroke: #000000" points="700.485,678.278 716.485,673.278 700.485,668.278 "/>
  </g>
  <g>
    <rect style="fill: #ffffff" x="-164.11" y="489.536" width="89" height="28"/>
    <rect style="fill: none; fill-opacity:0; stroke-width: 2; stroke: #000000" x="-164.11" y="489.536" width="89" height="28"/>
    <rect style="fill: #ffffff" x="-164.11" y="471.536" width="30" height="18"/>
    <rect style="fill: none; fill-opacity:0; stroke-width: 2; stroke: #000000" x="-164.11" y="471.536" width="30" height="18"/>
    <text font-size="12.8" style="fill: #000000;text-anchor:start;font-family:monospace;font-style:normal;font-weight:normal" x="-158.11" y="507.436">
      <tspan x="-158.11" y="507.436">my_project</tspan>
    </text>
  </g>
  <g>
    <polyline style="fill: none; fill-opacity:0; stroke-width: 2; stroke-dasharray: 8; stroke: #000000" points="-167.014,430.59 -199.055,430.59 -199.055,503.536 -171.798,503.536 "/>
    <polyline style="fill: none; fill-opacity:0; stroke-width: 2; stroke: #000000" points="-184.445,508.536 -168.445,503.536 -184.445,498.536 "/>
  </g>
  <g>
    <rect style="fill: #ffffff" x="471.268" y="147.325" width="80" height="80"/>
    <rect style="fill: none; fill-opacity:0; stroke-width: 2; stroke: #000000" x="471.268" y="147.325" width="80" height="80"/>
    <rect style="fill: #ffffff" x="471.268" y="127.325" width="73.3" height="20"/>
    <rect style="fill: none; fill-opacity:0; stroke-width: 2; stroke: #000000" x="471.268" y="127.325" width="73.3" height="20"/>
    <text font-size="12.7998" style="fill: #000000;text-anchor:start;font-family:monospace;font-style:normal;font-weight:normal" x="473.268" y="142.325">jvoicexml</text>
  </g>
  <g>
    <polyline style="fill: none; fill-opacity:0; stroke-width: 2; stroke-dasharray: 8; stroke: #000000" points="389.738,322.014 446.98,322.014 446.98,187.325 463.559,187.325 "/>
    <polyline style="fill: none; fill-opacity:0; stroke-width: 2; stroke: #000000" points="450.911,192.325 466.911,187.325 450.911,182.325 "/>
  </g>
  <g>
    <polyline style="fill: none; fill-opacity:0; stroke-width: 2; stroke-dasharray: 8; stroke: #000000" points="-40.9554,122.873 373.924,122.873 373.924,187.325 463.571,187.325 "/>
    <polyline style="fill: none; fill-opacity:0; stroke-width: 2; stroke: #000000" points="450.923,192.325 466.923,187.325 450.923,182.325 "/>
  </g>
  <g>
    <polyline style="fill: none; fill-opacity:0; stroke-width: 2; stroke-dasharray: 8; stroke: #000000" points="1085.04,240.556 1064.69,240.556 1064.69,187.325 557.973,187.325 "/>
    <polyline style="fill: none; fill-opacity:0; stroke-width: 2; stroke: #000000" points="570.621,182.325 554.621,187.325 570.621,192.325 "/>
  </g>
  <g>
    <polyline style="fill: none; fill-opacity:0; stroke-width: 2; stroke-dasharray: 8; stroke: #000000" points="720.586,633.278 640.982,633.278 640.982,187.325 558.968,187.325 "/>
    <polyline style="fill: none; fill-opacity:0; stroke-width: 2; stroke: #000000" points="571.615,182.325 555.615,187.325 571.615,192.325 "/>
  </g>
  <g>
    <line style="fill: none; fill-opacity:0; stroke-width: 2; stroke: #000000" x1="867.714" y1="429.199" x2="855.408" y2="403.759"/>
    <polygon style="fill: #000000" points="863.213,431.376 874.681,443.602 872.215,427.021 "/>
    <polygon style="fill: none; fill-opacity:0; stroke-width: 2; stroke: #000000" points="863.213,431.376 874.681,443.602 872.215,427.021 "/>
    <text font-size="12.7998" style="fill: #000000;text-anchor:middle;font-family:sans-serif;font-style:normal;font-weight:normal" x="894.106" y="427.738">input</text>
  </g>
  <g>
    <line style="fill: none; fill-opacity:0; stroke-width: 2; stroke: #000000" x1="703.987" y1="269.186" x2="389.738" y2="354.014"/>
    <polygon style="fill: #000000" points="705.29,274.014 719.435,265.017 702.684,264.359 "/>
    <polygon style="fill: none; fill-opacity:0; stroke-width: 2; stroke: #000000" points="705.29,274.014 719.435,265.017 702.684,264.359 "/>
    <text font-size="12.7998" style="fill: #000000;text-anchor:middle;font-family:sans-serif;font-style:normal;font-weight:normal" x="555.068" y="319.382">receive</text>
  </g>
  <g>
    <line style="fill: none; fill-opacity:0; stroke-width: 2; stroke: #000000" x1="703.872" y1="377.436" x2="389.738" y2="390.014"/>
    <polygon style="fill: #000000" points="704.072,382.432 719.859,376.796 703.672,372.44 "/>
    <polygon style="fill: none; fill-opacity:0; stroke-width: 2; stroke: #000000" points="704.072,382.432 719.859,376.796 703.672,372.44 "/>
    <text font-size="12.7998" style="fill: #000000;text-anchor:middle;font-family:sans-serif;font-style:normal;font-weight:normal" x="555.298" y="393.386">send</text>
  </g>
  <g>
    <line style="fill: none; fill-opacity:0; stroke-width: 2; stroke: #000000" x1="87.0222" y1="46.3593" x2="-115.003" y2="406.599"/>
    <polygon style="fill: #000000" points="91.3832,48.805 94.8485,32.404 82.6612,43.9136 "/>
    <polygon style="fill: none; fill-opacity:0; stroke-width: 2; stroke: #000000" points="91.3832,48.805 94.8485,32.404 82.6612,43.9136 "/>
    <text font-size="12.7998" style="fill: #000000;text-anchor:middle;font-family:sans-serif;font-style:normal;font-weight:normal" x="-86.4078" y="206.5">addOutput, addInput</text>
  </g>
  <g>
    <rect style="fill: #ffffff" x="819.236" y="574.25" width="325.7" height="44"/>
    <rect style="fill: none; fill-opacity:0; stroke-width: 2; stroke: #000000" x="819.236" y="574.25" width="325.7" height="44"/>
    <text font-size="12.8" style="fill: #000000;text-anchor:middle;font-family:monospace;font-style:normal;font-weight:normal" x="982.086" y="590.25">&lt;&lt;controller&gt;&gt;</text>
    <text font-size="16" style="fill: #000000;text-anchor:middle;font-family:sans-serif;font-style:normal;font-weight:700" x="982.086" y="609.25">Call</text>
    <rect style="fill: #ffffff" x="819.236" y="618.25" width="325.7" height="132"/>
    <rect style="fill: none; fill-opacity:0; stroke-width: 2; stroke: #000000" x="819.236" y="618.25" width="325.7" height="132"/>
    <text font-size="12.8" style="fill: #000000;text-anchor:start;font-family:monospace;font-style:normal;font-weight:normal" x="822.236" y="632.25">-server: TextServer</text>
    <text font-size="12.8" style="fill: #000000;text-anchor:start;font-family:monospace;font-style:normal;font-weight:normal" x="822.236" y="648.25">-dialog: URI = null</text>
    <text font-size="12.8" style="fill: #000000;text-anchor:start;font-family:monospace;font-style:normal;font-weight:normal" x="822.236" y="664.25">-voice: Voice = null</text>
    <text font-size="12.8" style="fill: #000000;text-anchor:start;font-family:monospace;font-style:normal;font-weight:normal" x="822.236" y="680.25">-session: Session = null</text>
    <text font-size="12.8" style="fill: #000000;text-anchor:start;font-family:monospace;font-style:normal;font-weight:normal" x="822.236" y="696.25">-error: AssertionError = null</text>
    <text font-size="12.8" style="fill: #000000;text-anchor:start;font-family:monospace;font-style:normal;font-weight:normal" x="822.236" y="712.25">+SERVER_PORT_MIN: int</text>
    <line style="fill: none; fill-opacity:0; stroke-width: 1; stroke: #000000" x1="822.236" y1="717.85" x2="983.936" y2="717.85"/>
    <text font-size="12.8" style="fill: #000000;text-anchor:start;font-family:monospace;font-style:normal;font-weight:normal" x="822.236" y="728.25">+SERVER_PORT_RANDOMIZE_COUNT: int</text>
    <line style="fill: none; fill-opacity:0; stroke-width: 1; stroke: #000000" x1="822.236" y1="733.85" x2="1076.34" y2="733.85"/>
    <text font-size="12.8" style="fill: #000000;text-anchor:start;font-family:monospace;font-style:normal;font-weight:normal" x="822.236" y="744.25">+SERVER_WAIT: long</text>
    <line style="fill: none; fill-opacity:0; stroke-width: 1; stroke: #000000" x1="822.236" y1="749.85" x2="960.836" y2="749.85"/>
    <rect style="fill: #ffffff" x="819.236" y="750.25" width="325.7" height="148"/>
    <rect style="fill: none; fill-opacity:0; stroke-width: 2; stroke: #000000" x="819.236" y="750.25" width="325.7" height="148"/>
    <text font-size="12.8" style="fill: #000000;text-anchor:start;font-family:monospace;font-style:normal;font-weight:normal" x="822.236" y="764.25">+&lt;&lt;constructor&gt;&gt; Call(dialog:URI)</text>
    <text font-size="12.8" style="fill: #000000;text-anchor:start;font-family:monospace;font-style:normal;font-weight:normal" x="822.236" y="780.25">+setListener(listener:TextListener): void</text>
    <text font-size="12.8" style="fill: #000000;text-anchor:start;font-family:monospace;font-style:normal;font-weight:normal" x="822.236" y="796.25">+getVoice(): Voice</text>
    <text font-size="12.8" style="fill: #000000;text-anchor:start;font-family:monospace;font-style:normal;font-weight:normal" x="822.236" y="812.25">+&lt;&lt;Runnable&gt;&gt; run(): void</text>
    <text font-size="12.8" style="fill: #000000;text-anchor:start;font-family:monospace;font-style:normal;font-weight:normal" x="822.236" y="828.25">+startDialog(): void</text>
    <text font-size="12.8" style="fill: #000000;text-anchor:start;font-family:monospace;font-style:normal;font-weight:normal" x="822.236" y="844.25">+getSession(): Session</text>
    <text font-size="12.8" style="fill: #000000;text-anchor:start;font-family:monospace;font-style:normal;font-weight:normal" x="822.236" y="860.25">+record(): Recording</text>
    <text font-size="12.8" style="fill: #000000;text-anchor:start;font-family:monospace;font-style:normal;font-weight:normal" x="822.236" y="876.25">+fail(error:AssertionError): void</text>
    <text font-size="12.8" style="fill: #000000;text-anchor:start;font-family:monospace;font-style:normal;font-weight:normal" x="822.236" y="892.25">+getFailure(): AssertionError</text>
  </g>
  <g>
    <polyline style="fill: none; fill-opacity:0; stroke-width: 2; stroke-dasharray: 8; stroke: #000000" points="818.232,736.25 136.98,736.25 136.98,681.134 152.637,681.134 "/>
    <polyline style="fill: none; fill-opacity:0; stroke-width: 2; stroke: #000000" points="139.989,686.134 155.989,681.134 139.989,676.134 "/>
  </g>
  <g>
    <rect style="fill: #ffffff" x="721.536" y="-168.25" width="233.3" height="28"/>
    <rect style="fill: none; fill-opacity:0; stroke-width: 2; stroke: #000000" x="721.536" y="-168.25" width="233.3" height="28"/>
    <text font-size="16" style="fill: #000000;text-anchor:middle;font-family:sans-serif;font-style:italic;font-weight:700" x="838.186" y="-149.25">Assertion</text>
    <rect style="fill: #ffffff" x="721.536" y="-140.25" width="233.3" height="8"/>
    <rect style="fill: none; fill-opacity:0; stroke-width: 2; stroke: #000000" x="721.536" y="-140.25" width="233.3" height="8"/>
    <rect style="fill: #ffffff" x="721.536" y="-132.25" width="233.3" height="52"/>
    <rect style="fill: none; fill-opacity:0; stroke-width: 2; stroke: #000000" x="721.536" y="-132.25" width="233.3" height="52"/>
    <text font-size="12.8" style="fill: #000000;text-anchor:start;font-family:monospace;font-style:italic;font-weight:700" x="724.536" y="-118.25">+toString(): String</text>
    <text font-size="12.8" style="fill: #000000;text-anchor:start;font-family:monospace;font-style:italic;font-weight:700" x="724.536" y="-102.25">+receive(actual:String): void</text>
    <text font-size="12.8" style="fill: #000000;text-anchor:start;font-family:monospace;font-style:italic;font-weight:700" x="724.536" y="-86.25">+send(record:Recording): void</text>
    <rect style="fill: #ffffff" x="908.836" y="-170.25" width="54" height="8"/>
    <rect style="fill: none; fill-opacity:0; stroke-width: 2; stroke-dasharray: 6; stroke: #000000" x="908.836" y="-170.25" width="54" height="8"/>
  </g>
  <g>
    <polyline style="fill: none; fill-opacity:0; stroke-width: 2; stroke-dasharray: 8; stroke: #000000" points="351.738,-20.4682 417.496,-20.4682 417.496,-124.25 713.855,-124.25 "/>
    <polyline style="fill: none; fill-opacity:0; stroke-width: 2; stroke: #000000" points="701.208,-119.25 717.208,-124.25 701.208,-129.25 "/>
    <text font-size="12.7998" style="fill: #000000;text-anchor:start;font-family:monospace;font-style:normal;font-weight:normal" x="419.496" y="-75.3591">  begin, next</text>
  </g>
  <g>
    <rect style="fill: #ffffff" x="721.536" y="445.5" width="356.5" height="44"/>
    <rect style="fill: none; fill-opacity:0; stroke-width: 2; stroke: #000000" x="721.536" y="445.5" width="356.5" height="44"/>
    <text font-size="12.8" style="fill: #000000;text-anchor:middle;font-family:monospace;font-style:normal;font-weight:normal" x="899.786" y="461.5">&lt;&lt;transaction&gt;&gt;</text>
    <text font-size="16" style="fill: #000000;text-anchor:middle;font-family:sans-serif;font-style:normal;font-weight:700" x="899.786" y="480.5">Recording</text>
    <rect style="fill: #ffffff" x="721.536" y="489.5" width="356.5" height="20"/>
    <rect style="fill: none; fill-opacity:0; stroke-width: 2; stroke: #000000" x="721.536" y="489.5" width="356.5" height="20"/>
    <text font-size="12.8" style="fill: #000000;text-anchor:start;font-family:monospace;font-style:normal;font-weight:normal" x="724.536" y="503.5">-server: TextServer</text>
    <rect style="fill: #ffffff" x="721.536" y="509.5" width="356.5" height="36"/>
    <rect style="fill: none; fill-opacity:0; stroke-width: 2; stroke: #000000" x="721.536" y="509.5" width="356.5" height="36"/>
    <text font-size="12.8" style="fill: #000000;text-anchor:start;font-family:monospace;font-style:normal;font-weight:normal" x="724.536" y="523.5">+&lt;&lt;constructor&gt;&gt; Recording(server:TextServer)</text>
    <text font-size="12.8" style="fill: #000000;text-anchor:start;font-family:monospace;font-style:normal;font-weight:normal" x="724.536" y="539.5">+input(STring:text): void</text>
  </g>
  <g>
    <polyline style="fill: none; fill-opacity:0; stroke-width: 2; stroke-dasharray: 8; stroke: #000000" points="1145.94,736.25 1205.98,736.25 1205.98,108.873 -33.2843,108.873 "/>
    <polyline style="fill: none; fill-opacity:0; stroke-width: 2; stroke: #000000" points="-20.6369,103.873 -36.6369,108.873 -20.6369,113.873 "/>
  </g>
  <g>
    <polyline style="fill: none; fill-opacity:0; stroke-width: 2; stroke-dasharray: 8; stroke: #000000" points="1078.97,495.5 1189.54,495.5 1189.54,254.556 1156.47,254.556 "/>
    <polyline style="fill: none; fill-opacity:0; stroke-width: 2; stroke: #000000" points="1169.12,249.556 1153.12,254.556 1169.12,259.556 "/>
  </g>
  <g>
    <polyline style="fill: none; fill-opacity:0; stroke-width: 2; stroke-dasharray: 8; stroke: #000000" points="389.738,422.014 685,422.014 685,495.5 713.835,495.5 "/>
    <polyline style="fill: none; fill-opacity:0; stroke-width: 2; stroke: #000000" points="701.187,500.5 717.187,495.5 701.187,490.5 "/>
  </g>
  <g>
    <line style="fill: none; fill-opacity:0; stroke-width: 2; stroke: #000000" x1="335.443" y1="754.141" x2="788.515" y2="546.496"/>
    <polygon style="fill: #000000" points="333.36,749.596 320.898,760.808 337.526,758.687 "/>
    <polygon style="fill: none; fill-opacity:0; stroke-width: 2; stroke: #000000" points="333.36,749.596 320.898,760.808 337.526,758.687 "/>
    <text font-size="12.7998" style="fill: #000000;text-anchor:middle;font-family:sans-serif;font-style:normal;font-weight:normal" x="564.996" y="627.742">sendInput</text>
  </g>
  <g>
    <rect style="fill: #ffffff" x="531.96" y="1021" width="418.1" height="56"/>
    <rect style="fill: none; fill-opacity:0; stroke-width: 2; stroke: #000000" x="531.96" y="1021" width="418.1" height="56"/>
    <text font-size="16" style="fill: #000000;text-anchor:middle;font-family:sans-serif;font-style:normal;font-weight:700" x="741.01" y="1040">GenericClient</text>
    <text font-size="11.2" style="fill: #000000;text-anchor:middle;font-family:sans-serif;font-style:italic;font-weight:normal" x="741.01" y="1055.5">build-path: ${config}/jndi.properties</text>
    <text font-size="11.2" style="fill: #000000;text-anchor:middle;font-family:sans-serif;font-style:italic;font-weight:normal" x="741.01" y="1069.5">jvmarg: -Djava.security.policy=${config}/jvoicexml.policy</text>
    <rect style="fill: #ffffff" x="531.96" y="1077" width="418.1" height="8"/>
    <rect style="fill: none; fill-opacity:0; stroke-width: 2; stroke: #000000" x="531.96" y="1077" width="418.1" height="8"/>
    <rect style="fill: #ffffff" x="531.96" y="1085" width="418.1" height="20"/>
    <rect style="fill: none; fill-opacity:0; stroke-width: 2; stroke: #000000" x="531.96" y="1085" width="418.1" height="20"/>
    <text font-size="12.8" style="fill: #000000;text-anchor:start;font-family:monospace;font-style:normal;font-weight:normal" x="534.96" y="1099">+connect(URI:uri,info:ConnectionInformation): Session</text>
  </g>
  <g>
    <polyline style="fill: none; fill-opacity:0; stroke-width: 2; stroke: #000000" points="794.064,888.25 678.932,888.25 678.932,955.5 361.5,955.5 "/>
    <polygon style="fill: #000000" points="819.236,888.25 805.236,893.05 791.236,888.25 805.236,883.45 "/>
    <polygon style="fill: none; fill-opacity:0; stroke-width: 2; stroke: #000000" points="819.236,888.25 805.236,893.05 791.236,888.25 805.236,883.45 "/>
    <text font-size="12.7998" style="fill: #000000;text-anchor:start;font-family:monospace;font-style:normal;font-weight:normal" x="680.932" y="918.875">voice</text>
    <text font-size="12.7998" style="fill: #000000;text-anchor:end;font-family:monospace;font-style:normal;font-weight:normal" x="787.236" y="885.25">1</text>
    <text font-size="12.7998" style="fill: #000000;text-anchor:start;font-family:monospace;font-style:normal;font-weight:normal" x="365.5" y="952.5"/>
  </g>
  <g>
    <polyline style="fill: none; fill-opacity:0; stroke-width: 2; stroke-dasharray: 8; stroke: #000000" points="82,1023.5 -220.842,1023.5 -220.842,108.873 -153.058,108.873 "/>
    <polyline style="fill: none; fill-opacity:0; stroke-width: 2; stroke: #000000" points="-165.706,113.873 -149.706,108.873 -165.706,103.873 "/>
  </g>
  <g>
    <polyline style="fill: none; fill-opacity:0; stroke-width: 2; stroke: #000000" points="389.738,473.186 389.738,597.5 819.236,597.5 819.236,596.25 "/>
    <polygon style="fill: #ffffff" points="389.738,448.014 394.538,462.014 389.738,476.014 384.938,462.014 "/>
    <polygon style="fill: none; fill-opacity:0; stroke-width: 2; stroke: #000000" points="389.738,448.014 394.538,462.014 389.738,476.014 384.938,462.014 "/>
    <text font-size="12.7998" style="fill: #000000;text-anchor:middle;font-family:monospace;font-style:normal;font-weight:normal" x="604.487" y="594.5"/>
    <text font-size="12.7998" style="fill: #000000;text-anchor:start;font-family:monospace;font-style:normal;font-weight:normal" x="400.738" y="460.014"> 1</text>
    <text font-size="12.7998" style="fill: #000000;text-anchor:start;font-family:monospace;font-style:normal;font-weight:normal" x="400.738" y="476.014"/>
    <text font-size="12.7998" style="fill: #000000;text-anchor:start;font-family:monospace;font-style:normal;font-weight:normal" x="823.236" y="608.25"/>
  </g>
  <g>
    <polyline style="fill: none; fill-opacity:0; stroke-width: 2; stroke-dasharray: 8; stroke: #000000" points="-89.9001,430.59 -43.02,430.59 -43.02,971.5 75.2948,971.5 "/>
    <polyline style="fill: none; fill-opacity:0; stroke-width: 2; stroke: #000000" points="62.6474,976.5 78.6474,971.5 62.6474,966.5 "/>
  </g>
  <g>
    <line style="fill: none; fill-opacity:0; stroke-width: 2; stroke: #000000" x1="837.108" y1="-38.3246" x2="838.186" y2="-80.25"/>
    <ellipse style="fill: #ffffff" cx="838.006" cy="-73.2523" rx="7" ry="7"/>
    <ellipse style="fill: none; fill-opacity:0; stroke-width: 2; stroke: #000000" cx="838.006" cy="-73.2523" rx="7" ry="7"/>
    <text font-size="12.7998" style="fill: #000000;text-anchor:start;font-family:monospace;font-style:normal;font-weight:normal" x="853.104" y="-180.876"/>
  </g>
  <g>
    <polyline style="fill: none; fill-opacity:0; stroke-width: 2; stroke-dasharray: 8; stroke: #000000" points="963.842,-124.25 1189,-124.25 1189,254.556 1155.49,254.556 "/>
    <polyline style="fill: none; fill-opacity:0; stroke-width: 2; stroke: #000000" points="1168.14,249.556 1152.14,254.556 1168.14,259.556 "/>
  </g>
  <g>
    <polyline style="fill: none; fill-opacity:0; stroke-width: 2; stroke-dasharray: 8; stroke: #000000" points="953.758,-16.3246 1189,-16.3246 1189,254.556 1156.5,254.556 "/>
    <polyline style="fill: none; fill-opacity:0; stroke-width: 2; stroke: #000000" points="1169.14,249.556 1153.14,254.556 1169.14,259.556 "/>
  </g>
  <g>
    <rect style="fill: #ffffff" x="82" y="901.5" width="279.5" height="44"/>
    <rect style="fill: none; fill-opacity:0; stroke-width: 2; stroke: #000000" x="82" y="901.5" width="279.5" height="44"/>
    <text font-size="12.8" style="fill: #000000;text-anchor:middle;font-family:monospace;font-style:normal;font-weight:normal" x="221.75" y="917.5">&lt;&lt;model&gt;&gt;</text>
    <text font-size="16" style="fill: #000000;text-anchor:middle;font-family:sans-serif;font-style:normal;font-weight:700" x="221.75" y="936.5">Voice</text>
    <rect style="fill: #ffffff" x="82" y="945.5" width="279.5" height="36"/>
    <rect style="fill: none; fill-opacity:0; stroke-width: 2; stroke: #000000" x="82" y="945.5" width="279.5" height="36"/>
    <text font-size="12.8" style="fill: #000000;text-anchor:start;font-family:monospace;font-style:normal;font-weight:normal" x="85" y="959.5">-client: GenericClient = null</text>
    <text font-size="12.8" style="fill: #000000;text-anchor:start;font-family:monospace;font-style:normal;font-weight:normal" x="85" y="975.5">-session: Session = null</text>
    <rect style="fill: #ffffff" x="82" y="981.5" width="279.5" height="84"/>
    <rect style="fill: none; fill-opacity:0; stroke-width: 2; stroke: #000000" x="82" y="981.5" width="279.5" height="84"/>
    <text font-size="12.8" style="fill: #000000;text-anchor:start;font-family:monospace;font-style:normal;font-weight:normal" x="85" y="995.5">+setClient(client:GenericClient)</text>
    <text font-size="12.8" style="fill: #000000;text-anchor:start;font-family:monospace;font-style:normal;font-weight:normal" x="85" y="1011.5">+getClient(): GenericClient</text>
    <text font-size="12.8" style="fill: #000000;text-anchor:start;font-family:monospace;font-style:normal;font-weight:normal" x="85" y="1027.5">+call(server:TextServer,dialog:URI)</text>
    <text font-size="12.8" style="fill: #000000;text-anchor:start;font-family:monospace;font-style:normal;font-weight:normal" x="85" y="1043.5">+close()</text>
    <text font-size="12.8" style="fill: #000000;text-anchor:start;font-family:monospace;font-style:normal;font-weight:normal" x="85" y="1059.5">+getSession(): Session</text>
  </g>
  <g>
    <polyline style="fill: none; fill-opacity:0; stroke-width: 2; stroke: #000000" points="386.672,991.5 453.227,991.5 453.227,1063 530.954,1063 "/>
    <polygon style="fill: #ffffff" points="361.5,991.5 375.5,986.7 389.5,991.5 375.5,996.3 "/>
    <polygon style="fill: none; fill-opacity:0; stroke-width: 2; stroke: #000000" points="361.5,991.5 375.5,986.7 389.5,991.5 375.5,996.3 "/>
    <text font-size="12.7998" style="fill: #000000;text-anchor:start;font-family:monospace;font-style:normal;font-weight:normal" x="455.227" y="1024.25">client</text>
    <text font-size="12.7998" style="fill: #000000;text-anchor:start;font-family:monospace;font-style:normal;font-weight:normal" x="393.5" y="988.5">1</text>
    <text font-size="12.7998" style="fill: #000000;text-anchor:end;font-family:monospace;font-style:normal;font-weight:normal" x="526.954" y="1060"/>
  </g>
  <g>
    <polyline style="fill: none; fill-opacity:0; stroke-width: 2; stroke-dasharray: 8; stroke: #000000" points="221.75,901.5 221.75,913 221.814,913 221.814,856.923 "/>
    <polyline style="fill: none; fill-opacity:0; stroke-width: 2; stroke: #000000" points="226.814,869.571 221.814,853.571 216.814,869.571 "/>
  </g>
  <g>
    <polyline style="fill: none; fill-opacity:0; stroke-width: 2; stroke-dasharray: 8; stroke: #000000" points="741.01,1020 741.01,980.416 511.268,980.416 511.268,234.029 "/>
    <polyline style="fill: none; fill-opacity:0; stroke-width: 2; stroke: #000000" points="516.268,246.677 511.268,230.677 506.268,246.677 "/>
  </g>
</svg>
